<svg xmlns="http://www.w3.org/2000/svg" xmlns:xlink="http://www.w3.org/1999/xlink" width="400" zoomAndPan="magnify" viewBox="0 0 300 299.999988" height="400" preserveAspectRatio="xMidYMid meet" version="1.0"><defs><g/><clipPath id="9bc38a4e54"><rect x="0" width="241" y="0" height="209"/></clipPath></defs><rect x="-30" width="360" fill="#ffffff" y="-29.999999" height="359.999986" fill-opacity="1"/><rect x="-30" width="360" fill="#a478ff" y="-29.999999" height="359.999986" fill-opacity="1"/><g transform="matrix(1, 0, 0, 1, 23, 36)"><g clip-path="url(#9bc38a4e54)"><g fill="#ffffff" fill-opacity="1"><g transform="translate(0.597633, 164.240098)"><g><path d="M 52.796875 22.078125 C 45.546875 22.078125 40.375 20.445312 37.28125 17.1875 C 34.1875 13.9375 32.640625 9.804688 32.640625 4.796875 L 32.640625 -2.40625 C 32.640625 -5.070312 32.929688 -7.414062 33.515625 -9.4375 C 34.109375 -11.46875 34.828125 -13.28125 35.671875 -14.875 C 36.523438 -16.476562 37.484375 -17.890625 38.546875 -19.109375 C 39.617188 -20.335938 40.632812 -21.539062 41.59375 -22.71875 C 43.40625 -24.851562 44.660156 -26.691406 45.359375 -28.234375 C 46.054688 -29.785156 46.40625 -31.414062 46.40625 -33.125 C 46.40625 -35.894531 44.960938 -38.023438 42.078125 -39.515625 C 39.203125 -41.015625 34.882812 -41.765625 29.125 -41.765625 L 14.71875 -41.765625 L 14.71875 -57.765625 L 29.125 -57.765625 C 34.882812 -57.765625 39.203125 -58.507812 42.078125 -60 C 44.960938 -61.488281 46.40625 -63.625 46.40625 -66.40625 C 46.40625 -68.101562 46.054688 -69.722656 45.359375 -71.265625 C 44.660156 -72.816406 43.40625 -74.660156 41.59375 -76.796875 C 40.632812 -77.867188 39.617188 -79.039062 38.546875 -80.3125 C 37.484375 -81.59375 36.523438 -83.035156 35.671875 -84.640625 C 34.828125 -86.242188 34.109375 -88.054688 33.515625 -90.078125 C 32.929688 -92.109375 32.640625 -94.457031 32.640625 -97.125 L 32.640625 -104.3125 C 32.640625 -109.332031 34.1875 -113.46875 37.28125 -116.71875 C 40.375 -119.96875 45.546875 -121.59375 52.796875 -121.59375 L 81.28125 -121.59375 L 81.28125 -105.765625 L 51.6875 -105.765625 L 51.6875 -98.078125 C 51.6875 -94.023438 52.351562 -90.929688 53.6875 -88.796875 C 55.019531 -86.660156 56.484375 -84.53125 58.078125 -82.40625 C 59.890625 -80.164062 61.59375 -77.765625 63.1875 -75.203125 C 64.789062 -72.640625 65.59375 -69.648438 65.59375 -66.234375 C 65.59375 -61.753906 64.046875 -58.179688 60.953125 -55.515625 C 57.859375 -52.847656 53.113281 -51.144531 46.71875 -50.40625 L 46.71875 -49.125 C 53.113281 -48.375 57.859375 -46.664062 60.953125 -44 C 64.046875 -41.332031 65.59375 -37.757812 65.59375 -33.28125 C 65.59375 -29.863281 64.789062 -26.875 63.1875 -24.3125 C 61.59375 -21.757812 59.890625 -19.363281 58.078125 -17.125 C 56.484375 -14.988281 55.019531 -12.851562 53.6875 -10.71875 C 52.351562 -8.582031 51.6875 -5.488281 51.6875 -1.4375 L 51.6875 6.234375 L 81.28125 6.234375 L 81.28125 22.078125 Z M 52.796875 22.078125 "/></g></g></g><g fill="#ffffff" fill-opacity="1"><g transform="translate(78.997713, 164.240098)"><g><path d="M 47.046875 1.921875 C 37.867188 1.921875 29.890625 0.535156 23.109375 -2.234375 C 16.335938 -5.015625 11.25 -8.800781 7.84375 -13.59375 L 21.125 -25.921875 C 24.320312 -22.398438 28.078125 -19.648438 32.390625 -17.671875 C 36.710938 -15.703125 41.648438 -14.71875 47.203125 -14.71875 C 51.890625 -14.71875 55.566406 -15.4375 58.234375 -16.875 C 60.898438 -18.320312 62.234375 -20.535156 62.234375 -23.515625 C 62.234375 -25.867188 61.328125 -27.5 59.515625 -28.40625 C 57.703125 -29.3125 55.195312 -30.03125 52 -30.5625 L 38.71875 -32.640625 C 34.988281 -33.171875 31.519531 -33.992188 28.3125 -35.109375 C 25.113281 -36.234375 22.34375 -37.753906 20 -39.671875 C 17.65625 -41.597656 15.785156 -43.945312 14.390625 -46.71875 C 13.003906 -49.488281 12.3125 -52.847656 12.3125 -56.796875 C 12.3125 -65.441406 15.617188 -72.21875 22.234375 -77.125 C 28.847656 -82.03125 38.128906 -84.484375 50.078125 -84.484375 C 58.179688 -84.484375 65.085938 -83.390625 70.796875 -81.203125 C 76.503906 -79.015625 81.066406 -75.894531 84.484375 -71.84375 L 72.640625 -58.40625 C 70.179688 -61.070312 67.03125 -63.3125 63.1875 -65.125 C 59.351562 -66.9375 54.71875 -67.84375 49.28125 -67.84375 C 40.101562 -67.84375 35.515625 -65.066406 35.515625 -59.515625 C 35.515625 -57.066406 36.421875 -55.390625 38.234375 -54.484375 C 40.046875 -53.578125 42.554688 -52.851562 45.765625 -52.3125 L 58.875 -50.234375 C 62.613281 -49.703125 66.082031 -48.875 69.28125 -47.75 C 72.476562 -46.632812 75.273438 -45.113281 77.671875 -43.1875 C 80.078125 -41.269531 81.972656 -38.925781 83.359375 -36.15625 C 84.742188 -33.382812 85.4375 -30.023438 85.4375 -26.078125 C 85.4375 -17.441406 82.101562 -10.613281 75.4375 -5.59375 C 68.769531 -0.582031 59.304688 1.921875 47.046875 1.921875 Z M 47.046875 1.921875 "/></g></g></g><g fill="#ffffff" fill-opacity="1"><g transform="translate(157.397793, 164.240098)"><g><path d="M 43.203125 -121.59375 C 50.453125 -121.59375 55.625 -119.96875 58.71875 -116.71875 C 61.8125 -113.46875 63.359375 -109.332031 63.359375 -104.3125 L 63.359375 -97.125 C 63.359375 -94.457031 63.0625 -92.109375 62.46875 -90.078125 C 61.882812 -88.054688 61.164062 -86.242188 60.3125 -84.640625 C 59.46875 -83.035156 58.507812 -81.59375 57.4375 -80.3125 C 56.375 -79.039062 55.363281 -77.867188 54.40625 -76.796875 C 52.59375 -74.660156 51.335938 -72.816406 50.640625 -71.265625 C 49.941406 -69.722656 49.59375 -68.101562 49.59375 -66.40625 C 49.59375 -63.625 51.03125 -61.488281 53.90625 -60 C 56.789062 -58.507812 61.113281 -57.765625 66.875 -57.765625 L 81.28125 -57.765625 L 81.28125 -41.765625 L 66.875 -41.765625 C 61.113281 -41.765625 56.789062 -41.015625 53.90625 -39.515625 C 51.03125 -38.023438 49.59375 -35.894531 49.59375 -33.125 C 49.59375 -31.414062 49.941406 -29.785156 50.640625 -28.234375 C 51.335938 -26.691406 52.59375 -24.851562 54.40625 -22.71875 C 55.363281 -21.539062 56.375 -20.335938 57.4375 -19.109375 C 58.507812 -17.890625 59.46875 -16.476562 60.3125 -14.875 C 61.164062 -13.28125 61.882812 -11.46875 62.46875 -9.4375 C 63.0625 -7.414062 63.359375 -5.070312 63.359375 -2.40625 L 63.359375 4.796875 C 63.359375 9.804688 61.8125 13.9375 58.71875 17.1875 C 55.625 20.445312 50.453125 22.078125 43.203125 22.078125 L 14.71875 22.078125 L 14.71875 6.234375 L 44.3125 6.234375 L 44.3125 -1.4375 C 44.3125 -5.488281 43.644531 -8.582031 42.3125 -10.71875 C 40.976562 -12.851562 39.515625 -14.988281 37.921875 -17.125 C 36.109375 -19.363281 34.398438 -21.757812 32.796875 -24.3125 C 31.203125 -26.875 30.40625 -29.863281 30.40625 -33.28125 C 30.40625 -37.757812 31.953125 -41.332031 35.046875 -44 C 38.140625 -46.664062 42.882812 -48.375 49.28125 -49.125 L 49.28125 -50.40625 C 42.882812 -51.144531 38.140625 -52.847656 35.046875 -55.515625 C 31.953125 -58.179688 30.40625 -61.753906 30.40625 -66.234375 C 30.40625 -69.648438 31.203125 -72.640625 32.796875 -75.203125 C 34.398438 -77.765625 36.109375 -80.164062 37.921875 -82.40625 C 39.515625 -84.53125 40.976562 -86.660156 42.3125 -88.796875 C 43.644531 -90.929688 44.3125 -94.023438 44.3125 -98.078125 L 44.3125 -105.765625 L 14.71875 -105.765625 L 14.71875 -121.59375 Z M 43.203125 -121.59375 "/></g></g></g></g></g></svg>